<svg xmlns="http://www.w3.org/2000/svg" width="1200" height="320" viewBox="0 0 1200 320" role="img" aria-label="S Sahith Somasundar, AI and full-stack developer">
  <defs>
    <linearGradient id="bg" x1="0" y1="0" x2="1" y2="1">
      <stop offset="0" stop-color="#0b1020"/>
      <stop offset="0.55" stop-color="#1a1446"/>
      <stop offset="1" stop-color="#0f3a4a"/>
    </linearGradient>
    <linearGradient id="accent" x1="0" y1="0" x2="1" y2="0">
      <stop offset="0" stop-color="#7c5cff"/>
      <stop offset="1" stop-color="#22d3ee"/>
    </linearGradient>
    <radialGradient id="glow" cx="0.82" cy="0.2" r="0.6">
      <stop offset="0" stop-color="#22d3ee" stop-opacity="0.35"/>
      <stop offset="1" stop-color="#22d3ee" stop-opacity="0"/>
    </radialGradient>
  </defs>
  <rect width="1200" height="320" rx="18" fill="url(#bg)"/>
  <rect width="1200" height="320" rx="18" fill="url(#glow)"/>
  <g stroke="#ffffff" stroke-opacity="0.07" stroke-width="1">
    <path d="M0 80H1200M0 160H1200M0 240H1200M300 0V320M600 0V320M900 0V320"/>
  </g>
  <g fill="none" stroke="url(#accent)" stroke-width="2" stroke-opacity="0.9">
    <circle cx="930" cy="110" r="7" fill="#22d3ee"/><circle cx="1020" cy="190" r="7" fill="#7c5cff"/>
    <circle cx="1110" cy="100" r="7" fill="#22d3ee"/><circle cx="1050" cy="260" r="7" fill="#7c5cff"/>
    <circle cx="880" cy="230" r="7" fill="#7c5cff"/>
    <path d="M930 110L1020 190L1110 100M1020 190L1050 260M1020 190L880 230M930 110L880 230"/>
  </g>
  <text x="70" y="150" font-family="Segoe UI, Helvetica, Arial, sans-serif" font-size="60" font-weight="800" fill="#ffffff">S Sahith Somasundar</text>
  <rect x="70" y="170" width="140" height="6" rx="3" fill="url(#accent)"/>
  <text x="70" y="226" font-family="Segoe UI, Helvetica, Arial, sans-serif" font-size="28" fill="#c7d2fe">AI agents · RL environments · full-stack products</text>
  <text x="70" y="272" font-family="Segoe UI, Helvetica, Arial, sans-serif" font-size="20" fill="#94a3b8">B.Tech IT, VNR VJIET · Class of 2028</text>
</svg>
